<?xml version="1.0" encoding="UTF-8"?>
<svg width="86.3mm" height="61.7mm" version="1.1" viewBox="0 0 86.3 61.7" xmlns="http://www.w3.org/2000/svg">
 <defs>
  <filter id="filter43877-49-9-2" x="-.00875" y="-.0217" width="1.02" height="1.04" color-interpolation-filters="sRGB">
   <feGaussianBlur stdDeviation="0.11617293"/>
  </filter>
  <mask id="mask-powermask-path-effect60590-2" maskUnits="userSpaceOnUse">
   <path id="mask-powermask-path-effect60590_box" d="m79.9 53.6h34v15h-34z" fill="#fff"/>
   <path d="m79.9 53.6h34v15h-34z" fill="#fff"/>
   <path d="m79.9 53.6h34v15h-34z" fill="#fff"/>
   <path d="m79.9 53.6h34v15h-34z" fill="#fff"/>
   <path d="m79.9 53.6h34v15h-34z" fill="#fff"/>
   <circle cx="109" cy="61.1" r="1.05" d="m 110.27,61.06081 a 1.0544785,1.0544785 0 0 1 -1.05448,1.054479 1.0544785,1.0544785 0 0 1 -1.05448,-1.054479 1.0544785,1.0544785 0 0 1 1.05448,-1.054478 1.0544785,1.0544785 0 0 1 1.05448,1.054478 z"/>
  </mask>
  <filter id="filter43877-49-2-6" x="-.00875" y="-.0217" width="1.02" height="1.04" color-interpolation-filters="sRGB">
   <feGaussianBlur stdDeviation="0.11617293"/>
  </filter>
  <mask id="mask-powermask-path-effect55362-2" maskUnits="userSpaceOnUse">
   <path id="mask-powermask-path-effect55362_box" d="m79.9 53.6h34v15h-34z" fill="#fff"/>
   <path d="m79.9 53.6h34v15h-34z" fill="#fff"/>
   <path d="m79.9 53.6h34v15h-34z" fill="#fff"/>
   <path d="m79.9 53.6h34v15h-34z" fill="#fff"/>
   <path d="m79.9 53.6h34v15h-34z" fill="#fff"/>
   <circle cx="109" cy="61.1" r="1.05" d="m 110.27,61.06081 a 1.0544785,1.0544785 0 0 1 -1.05448,1.054479 1.0544785,1.0544785 0 0 1 -1.05448,-1.054479 1.0544785,1.0544785 0 0 1 1.05448,-1.054478 1.0544785,1.0544785 0 0 1 1.05448,1.054478 z"/>
  </mask>
  <filter id="filter43877-49-28" x="-.00875" y="-.0217" width="1.02" height="1.04" color-interpolation-filters="sRGB">
   <feGaussianBlur stdDeviation="0.11617293"/>
  </filter>
  <mask id="mask-powermask-path-effect55366-2" maskUnits="userSpaceOnUse">
   <path id="mask-powermask-path-effect55366_box" d="m79.9 53.6h34v15h-34z" fill="#fff"/>
   <path d="m79.9 53.6h34v15h-34z" fill="#fff"/>
   <path d="m79.9 53.6h34v15h-34z" fill="#fff"/>
   <path d="m79.9 53.6h34v15h-34z" fill="#fff"/>
   <circle cx="109" cy="61.1" r="1.05" d="m 110.27,61.06081 a 1.0544785,1.0544785 0 0 1 -1.05448,1.054479 1.0544785,1.0544785 0 0 1 -1.05448,-1.054479 1.0544785,1.0544785 0 0 1 1.05448,-1.054478 1.0544785,1.0544785 0 0 1 1.05448,1.054478 z"/>
  </mask>
  <filter id="filter43877-49-8-2" x="-.00875" y="-.0217" width="1.02" height="1.04" color-interpolation-filters="sRGB">
   <feGaussianBlur stdDeviation="0.11617293"/>
  </filter>
  <mask id="mask-powermask-path-effect55370-3" maskUnits="userSpaceOnUse">
   <path id="mask-powermask-path-effect55370_box" d="m79.9 53.6h34v15h-34z" fill="#fff"/>
   <path d="m79.9 53.6h34v15h-34z" fill="#fff"/>
   <path d="m79.9 53.6h34v15h-34z" fill="#fff"/>
   <path d="m79.9 53.6h34v15h-34z" fill="#fff"/>
   <path d="m79.9 53.6h34v15h-34z" fill="#fff"/>
   <circle cx="109" cy="61.1" r="1.05" d="m 110.27,61.06081 a 1.0544785,1.0544785 0 0 1 -1.05448,1.054479 1.0544785,1.0544785 0 0 1 -1.05448,-1.054479 1.0544785,1.0544785 0 0 1 1.05448,-1.054478 1.0544785,1.0544785 0 0 1 1.05448,1.054478 z"/>
  </mask>
  <filter id="filter43877-49-9" x="-.00875" y="-.0217" width="1.02" height="1.04" color-interpolation-filters="sRGB">
   <feGaussianBlur stdDeviation="0.11617293"/>
  </filter>
  <mask id="mask-powermask-path-effect45816-19" maskUnits="userSpaceOnUse">
   <path id="mask-powermask-path-effect45816_box" d="m79.9 53.6h34v15h-34z" fill="#fff"/>
   <path d="m79.9 53.6h34v15h-34z" fill="#fff"/>
   <path d="m79.9 53.6h34v15h-34z" fill="#fff"/>
   <path d="m79.9 53.6h34v15h-34z" fill="#fff"/>
   <circle cx="109" cy="61.1" r="1.05" d="m 110.27,61.06081 a 1.0544785,1.0544785 0 0 1 -1.05448,1.054479 1.0544785,1.0544785 0 0 1 -1.05448,-1.054479 1.0544785,1.0544785 0 0 1 1.05448,-1.054478 1.0544785,1.0544785 0 0 1 1.05448,1.054478 z"/>
  </mask>
  <filter id="filter43877-49-2" x="-.00875" y="-.0217" width="1.02" height="1.04" color-interpolation-filters="sRGB">
   <feGaussianBlur stdDeviation="0.11617293"/>
  </filter>
  <mask id="mask-powermask-path-effect49293-3" maskUnits="userSpaceOnUse">
   <path id="mask-powermask-path-effect49293_box" d="m79.9 53.6h34v15h-34z" fill="#fff"/>
   <path d="m79.9 53.6h34v15h-34z" fill="#fff"/>
   <path d="m79.9 53.6h34v15h-34z" fill="#fff"/>
   <path d="m79.9 53.6h34v15h-34z" fill="#fff"/>
   <circle cx="109" cy="61.1" r="1.05" d="m 110.27,61.06081 a 1.0544785,1.0544785 0 0 1 -1.05448,1.054479 1.0544785,1.0544785 0 0 1 -1.05448,-1.054479 1.0544785,1.0544785 0 0 1 1.05448,-1.054478 1.0544785,1.0544785 0 0 1 1.05448,1.054478 z"/>
  </mask>
  <filter id="filter43877-49" x="-.00875" y="-.0217" width="1.02" height="1.04" color-interpolation-filters="sRGB">
   <feGaussianBlur stdDeviation="0.11617293"/>
  </filter>
  <mask id="mask-powermask-path-effect44345-29" maskUnits="userSpaceOnUse">
   <path id="mask-powermask-path-effect44345_box" d="m79.9 53.6h34v15h-34z" fill="#fff"/>
   <path d="m79.9 53.6h34v15h-34z" fill="#fff"/>
   <path d="m79.9 53.6h34v15h-34z" fill="#fff"/>
   <circle cx="109" cy="61.1" r="1.05" d="m 110.27,61.06081 a 1.0544785,1.0544785 0 0 1 -1.05448,1.054479 1.0544785,1.0544785 0 0 1 -1.05448,-1.054479 1.0544785,1.0544785 0 0 1 1.05448,-1.054478 1.0544785,1.0544785 0 0 1 1.05448,1.054478 z"/>
  </mask>
  <filter id="filter43877-49-8" x="-.00875" y="-.0217" width="1.02" height="1.04" color-interpolation-filters="sRGB">
   <feGaussianBlur stdDeviation="0.11617293"/>
  </filter>
  <mask id="mask-powermask-path-effect46915-4" maskUnits="userSpaceOnUse">
   <path id="mask-powermask-path-effect46915_box" d="m79.9 53.6h34v15h-34z" fill="#fff"/>
   <path d="m79.9 53.6h34v15h-34z" fill="#fff"/>
   <path d="m79.9 53.6h34v15h-34z" fill="#fff"/>
   <path d="m79.9 53.6h34v15h-34z" fill="#fff"/>
   <circle cx="109" cy="61.1" r="1.05" d="m 110.27,61.06081 a 1.0544785,1.0544785 0 0 1 -1.05448,1.054479 1.0544785,1.0544785 0 0 1 -1.05448,-1.054479 1.0544785,1.0544785 0 0 1 1.05448,-1.054478 1.0544785,1.0544785 0 0 1 1.05448,1.054478 z"/>
  </mask>
  <filter id="filter43877-49-8-4" x="-.00875" y="-.0217" width="1.02" height="1.04" color-interpolation-filters="sRGB">
   <feGaussianBlur stdDeviation="0.11617293"/>
  </filter>
  <mask id="mask-powermask-path-effect61651" maskUnits="userSpaceOnUse">
   <path id="mask-powermask-path-effect61651_box" d="m79.9 53.6h34v15h-34z" fill="#fff"/>
   <path d="m79.9 53.6h34v15h-34z" fill="#fff"/>
   <path d="m79.9 53.6h34v15h-34z" fill="#fff"/>
   <path d="m79.9 53.6h34v15h-34z" fill="#fff"/>
   <path d="m79.9 53.6h34v15h-34z" fill="#fff"/>
   <path d="m79.9 53.6h34v15h-34z" fill="#fff"/>
   <circle cx="109" cy="61.1" r="1.05" d="m 110.27,61.06081 a 1.0544785,1.0544785 0 0 1 -1.05448,1.054479 1.0544785,1.0544785 0 0 1 -1.05448,-1.054479 1.0544785,1.0544785 0 0 1 1.05448,-1.054478 1.0544785,1.0544785 0 0 1 1.05448,1.054478 z"/>
  </mask>
 </defs>
 <g transform="translate(-27.9 -41)" font-family="'Source Sans Pro'" letter-spacing="0px" word-spacing="0px">
  <text font-size="4.94px" style="line-height:1.25;shape-inside:url(#rect19552);white-space:pre" xml:space="preserve"/>
  <text x="111.08807" y="50.083462" font-size="4.94px" stroke-width=".265" text-align="end" text-anchor="end" style="line-height:1.25" xml:space="preserve"><tspan x="111.08807" y="50.083462" text-align="end">Подписка на </tspan><tspan x="111.08807" y="59.343887" font-size="8.47px" text-align="end">7 дней</tspan></text>
  <text x="31.749998" y="88.784119" font-size="4.94px" stroke-width=".265" style="line-height:1.25" xml:space="preserve"><tspan x="31.749998" y="88.784119">Канал </tspan><tspan x="31.749998" y="94.957741">Бешеных скидок</tspan></text>
  <text x="32.035057" y="100.27818" fill="#2facff" font-size="3.71px" stroke-width=".199" style="line-height:1.25" xml:space="preserve"><tspan x="32.035057" y="100.27818" fill="#2facff" stroke-width=".199">t.me/mad_sales_bot</tspan></text>
 </g>
 <g>
  <g transform="rotate(-23.6 -79.2 217)">
   <path d="m77 61.4v12.9h25l6.88-5.58v-1.61l-6.88-5.67zm28.2 5.32a1.05 1.05 0 0 1 1.05 1.05 1.05 1.05 0 0 1-1.05 1.05 1.05 1.05 0 0 1-1.05-1.05 1.05 1.05 0 0 1 1.05-1.05z" fill="#808080" filter="url(#filter43877-49-8-4)" style="mix-blend-mode:normal"/>
   <g transform="translate(-4.26 6.38)">
    <path d="m81 54.6h25l6.88 5.67v1.61l-6.88 5.58h-25z" fill="#2b1100" mask="url(#mask-powermask-path-effect61651)" stroke="#000" stroke-dashoffset="3.89" stroke-width=".165"/>
    <text x="83.940788" y="64.143578" fill="#ececec" font-family="'Source Sans Pro'" font-size="8.92px" letter-spacing="0px" stroke-width=".478" word-spacing="0px" style="line-height:1.25" xml:space="preserve"><tspan x="83.940788" y="64.143578" fill="#ececec" font-family="'Helvetica Light'" stroke-width=".478">-95%</tspan></text>
    <circle cx="109" cy="61.1" r=".979" fill="none" stroke="#000" stroke-dashoffset="3.89" stroke-width=".165"/>
   </g>
  </g>
  <g transform="rotate(-23.6 -64.8 204)">
   <path d="m77 61.4v12.9h25l6.88-5.58v-1.61l-6.88-5.67zm28.2 5.32a1.05 1.05 0 0 1 1.05 1.05 1.05 1.05 0 0 1-1.05 1.05 1.05 1.05 0 0 1-1.05-1.05 1.05 1.05 0 0 1 1.05-1.05z" fill="#808080" filter="url(#filter43877-49-9-2)" style="mix-blend-mode:normal"/>
   <g transform="translate(-4.26 6.38)">
    <path d="m81 54.6h25l6.88 5.67v1.61l-6.88 5.58h-25z" fill="#90cd00" mask="url(#mask-powermask-path-effect60590-2)" stroke="#000" stroke-dashoffset="3.89" stroke-width=".165"/>
    <text x="83.940788" y="64.143578" fill="#ececec" font-family="'Source Sans Pro'" font-size="8.92px" letter-spacing="0px" stroke-width=".478" word-spacing="0px" style="line-height:1.25" xml:space="preserve"><tspan x="83.940788" y="64.143578" fill="#ececec" font-family="'Helvetica Light'" stroke-width=".478">-80%</tspan></text>
    <circle cx="109" cy="61.1" r=".979" fill="none" stroke="#000" stroke-dashoffset="3.89" stroke-width=".165"/>
   </g>
  </g>
  <g transform="rotate(-23.6 -50.3 191)">
   <path d="m77 61.4v12.9h25l6.88-5.58v-1.61l-6.88-5.67zm28.2 5.32a1.05 1.05 0 0 1 1.05 1.05 1.05 1.05 0 0 1-1.05 1.05 1.05 1.05 0 0 1-1.05-1.05 1.05 1.05 0 0 1 1.05-1.05z" fill="#808080" filter="url(#filter43877-49-2-6)" style="mix-blend-mode:normal"/>
   <g transform="translate(-4.26 6.38)">
    <path d="m81 54.6h25l6.88 5.67v1.61l-6.88 5.58h-25z" fill="#f60" mask="url(#mask-powermask-path-effect55362-2)" stroke="#000" stroke-dashoffset="3.89" stroke-width=".165"/>
    <text x="83.940788" y="64.143578" fill="#ececec" font-family="'Source Sans Pro'" font-size="8.92px" letter-spacing="0px" stroke-width=".478" word-spacing="0px" style="line-height:1.25" xml:space="preserve"><tspan x="83.940788" y="64.143578" fill="#ececec" font-family="'Helvetica Light'" stroke-width=".478">-85%</tspan></text>
    <circle cx="109" cy="61.1" r=".979" fill="none" stroke="#000" stroke-dashoffset="3.89" stroke-width=".165"/>
   </g>
  </g>
  <g transform="rotate(-23.6 -35.9 178)">
   <path d="m77 61.4v12.9h25l6.88-5.58v-1.61l-6.88-5.67zm28.2 5.32a1.05 1.05 0 0 1 1.05 1.05 1.05 1.05 0 0 1-1.05 1.05 1.05 1.05 0 0 1-1.05-1.05 1.05 1.05 0 0 1 1.05-1.05z" fill="#808080" filter="url(#filter43877-49-28)" style="mix-blend-mode:normal"/>
   <g transform="translate(-4.26 6.38)">
    <path d="m81 54.6h25l6.88 5.67v1.61l-6.88 5.58h-25z" fill="#d40000" mask="url(#mask-powermask-path-effect55366-2)" stroke="#000" stroke-dashoffset="3.89" stroke-width=".165"/>
    <text x="83.940788" y="64.143578" fill="#ececec" font-family="'Source Sans Pro'" font-size="8.92px" letter-spacing="0px" stroke-width=".478" word-spacing="0px" style="line-height:1.25" xml:space="preserve"><tspan x="83.940788" y="64.143578" fill="#ececec" font-family="'Helvetica Light'" stroke-width=".478">-90%</tspan></text>
    <circle cx="109" cy="61.1" r=".979" fill="none" stroke="#000" stroke-dashoffset="3.89" stroke-width=".165"/>
   </g>
  </g>
  <g transform="rotate(-23.6 -21.4 165)">
   <path d="m77 61.4v12.9h25l6.88-5.58v-1.61l-6.88-5.67zm28.2 5.32a1.05 1.05 0 0 1 1.05 1.05 1.05 1.05 0 0 1-1.05 1.05 1.05 1.05 0 0 1-1.05-1.05 1.05 1.05 0 0 1 1.05-1.05z" fill="#808080" filter="url(#filter43877-49-8-2)" style="mix-blend-mode:normal"/>
   <g transform="translate(-4.26 6.38)">
    <path d="m81 54.6h25l6.88 5.67v1.61l-6.88 5.58h-25z" fill="#2b1100" mask="url(#mask-powermask-path-effect55370-3)" stroke="#000" stroke-dashoffset="3.89" stroke-width=".165"/>
    <text x="83.940788" y="64.143578" fill="#ececec" font-family="'Source Sans Pro'" font-size="8.92px" letter-spacing="0px" stroke-width=".478" word-spacing="0px" style="line-height:1.25" xml:space="preserve"><tspan x="83.940788" y="64.143578" fill="#ececec" font-family="'Helvetica Light'" stroke-width=".478">-95%</tspan></text>
    <circle cx="109" cy="61.1" r=".979" fill="none" stroke="#000" stroke-dashoffset="3.89" stroke-width=".165"/>
   </g>
  </g>
  <g transform="rotate(-23.6 -6.95 151)">
   <path d="m77 61.4v12.9h25l6.88-5.58v-1.61l-6.88-5.67zm28.2 5.32a1.05 1.05 0 0 1 1.05 1.05 1.05 1.05 0 0 1-1.05 1.05 1.05 1.05 0 0 1-1.05-1.05 1.05 1.05 0 0 1 1.05-1.05z" fill="#808080" filter="url(#filter43877-49-9)" style="mix-blend-mode:normal"/>
   <g transform="translate(-4.26 6.38)">
    <path d="m81 54.6h25l6.88 5.67v1.61l-6.88 5.58h-25z" fill="#90cd00" mask="url(#mask-powermask-path-effect45816-19)" stroke="#000" stroke-dashoffset="3.89" stroke-width=".165"/>
    <text x="83.940788" y="64.143578" fill="#ececec" font-family="'Source Sans Pro'" font-size="8.92px" letter-spacing="0px" stroke-width=".478" word-spacing="0px" style="line-height:1.25" xml:space="preserve"><tspan x="83.940788" y="64.143578" fill="#ececec" font-family="'Helvetica Light'" stroke-width=".478">-80%</tspan></text>
    <circle cx="109" cy="61.1" r=".979" fill="none" stroke="#000" stroke-dashoffset="3.89" stroke-width=".165"/>
   </g>
  </g>
  <g transform="rotate(-23.6 7.51 138)">
   <path d="m77 61.4v12.9h25l6.88-5.58v-1.61l-6.88-5.67zm28.2 5.32a1.05 1.05 0 0 1 1.05 1.05 1.05 1.05 0 0 1-1.05 1.05 1.05 1.05 0 0 1-1.05-1.05 1.05 1.05 0 0 1 1.05-1.05z" fill="#808080" filter="url(#filter43877-49-2)" style="mix-blend-mode:normal"/>
   <g transform="translate(-4.26 6.38)">
    <path d="m81 54.6h25l6.88 5.67v1.61l-6.88 5.58h-25z" fill="#f60" mask="url(#mask-powermask-path-effect49293-3)" stroke="#000" stroke-dashoffset="3.89" stroke-width=".165"/>
    <text x="83.940788" y="64.143578" fill="#ececec" font-family="'Source Sans Pro'" font-size="8.92px" letter-spacing="0px" stroke-width=".478" word-spacing="0px" style="line-height:1.25" xml:space="preserve"><tspan x="83.940788" y="64.143578" fill="#ececec" font-family="'Helvetica Light'" stroke-width=".478">-85%</tspan></text>
    <circle cx="109" cy="61.1" r=".979" fill="none" stroke="#000" stroke-dashoffset="3.89" stroke-width=".165"/>
   </g>
  </g>
  <g transform="rotate(-23.6 22 125)">
   <path d="m77 61.4v12.9h25l6.88-5.58v-1.61l-6.88-5.67zm28.2 5.32a1.05 1.05 0 0 1 1.05 1.05 1.05 1.05 0 0 1-1.05 1.05 1.05 1.05 0 0 1-1.05-1.05 1.05 1.05 0 0 1 1.05-1.05z" fill="#808080" filter="url(#filter43877-49)" style="mix-blend-mode:normal"/>
   <g transform="translate(-4.26 6.38)">
    <path d="m81 54.6h25l6.88 5.67v1.61l-6.88 5.58h-25z" fill="#d40000" mask="url(#mask-powermask-path-effect44345-29)" stroke="#000" stroke-dashoffset="3.89" stroke-width=".165"/>
    <text x="83.940788" y="64.143578" fill="#ececec" font-family="'Source Sans Pro'" font-size="8.92px" letter-spacing="0px" stroke-width=".478" word-spacing="0px" style="line-height:1.25" xml:space="preserve"><tspan x="83.940788" y="64.143578" fill="#ececec" font-family="'Helvetica Light'" stroke-width=".478">-90%</tspan></text>
    <circle cx="109" cy="61.1" r=".979" fill="none" stroke="#000" stroke-dashoffset="3.89" stroke-width=".165"/>
   </g>
  </g>
  <g transform="rotate(-23.6 36.4 112)">
   <path d="m77 61.4v12.9h25l6.88-5.58v-1.61l-6.88-5.67zm28.2 5.32a1.05 1.05 0 0 1 1.05 1.05 1.05 1.05 0 0 1-1.05 1.05 1.05 1.05 0 0 1-1.05-1.05 1.05 1.05 0 0 1 1.05-1.05z" fill="#808080" filter="url(#filter43877-49-8)" style="mix-blend-mode:normal"/>
   <g transform="translate(-4.26 6.38)">
    <path d="m81 54.6h25l6.88 5.67v1.61l-6.88 5.58h-25z" fill="#2b1100" mask="url(#mask-powermask-path-effect46915-4)" stroke="#000" stroke-dashoffset="3.89" stroke-width=".165"/>
    <text x="83.940788" y="64.143578" fill="#ececec" font-family="'Source Sans Pro'" font-size="8.92px" letter-spacing="0px" stroke-width=".478" word-spacing="0px" style="line-height:1.25" xml:space="preserve"><tspan x="83.940788" y="64.143578" fill="#ececec" font-family="'Helvetica Light'" stroke-width=".478">-95%</tspan></text>
    <circle cx="109" cy="61.1" r=".979" fill="none" stroke="#000" stroke-dashoffset="3.89" stroke-width=".165"/>
   </g>
  </g>
 </g>
</svg>
